<svg class="svg-icon" style="width: 1em; height: 1em;vertical-align: middle;fill: currentColor;overflow: hidden;" viewBox="0 0 1024 1024" version="1.1" xmlns="http://www.w3.org/2000/svg"><path d="M669.217694 741.900064c0-24.463158-11.526521-46.108131-29.748534-59.716057-50.90539-34.785248-92.332918-56.657394-163.862022-87.841627-18.069541-6.677073-30.879288-23.995507-30.879288-44.344974 0-14.362102 5.9055-27.912723 16.612353-35.854603 64.010873-47.489594 73.077366-187.369412 73.077366-187.369412 0-82.432431-66.963111-149.256372-149.578714-149.256372s-150.081157 64.943105-150.081157 147.377582c0 0 3.719718 105.093547 45.099151 154.449651l0.00921 0c8.273431 10.969842 16.943904 24.205285 27.668153 32.91976 10.118452 8.673543 16.818037 22.434965 16.818037 36.791951 0 20.35049-12.765745 38.139645-30.834262 44.820811-59.771315 24.977881-110.550839 52.04433-163.963329 88.071871-18.22099 13.612019-30.040177 35.374672-30.040177 59.832713 0 34.772968 23.882943 63.962777 56.138578 72.249511 0 0 87.762833 35.121915 228.39785 35.121915 139.631154 0 228.39171-35.007305 228.39171-35.043121l0-0.016373C644.431172 805.805536 669.217694 776.672008 669.217694 741.900064L669.217694 741.900064zM669.217694 741.900064"  /><path d="M903.418714 707.680704c-40.324404-27.550473-73.243141-44.873-129.909745-69.570495-14.312984-5.291516-24.51023-19.006889-24.51023-35.126009 0-11.369955 4.64888-22.107507 13.131065-28.396747 50.713009-37.615713 57.883315-148.406005 57.883315-148.406005 0-65.287959-53.054333-118.217449-118.503974-118.217449-65.446571 0-118.893854 51.873438-118.893854 117.16242 0 0 2.944052 82.554204 35.727713 122.771161l0 0c6.559393 10.05296 13.424754 18.735713 21.920242 25.635867 8.020674 6.873548 13.32447 17.553795 13.32447 28.92375 0 6.362918-1.592264 12.347213-4.378727 17.645892 8.107655 5.198395 16.280802 10.589173 24.697495 16.341177l0.99056 0.667196 0.958838 0.715291c33.228799 24.815175 52.287877 63.295582 52.287877 105.573477 0 29.721929-10.576893 58.97416-29.779234 82.367963-4.086062 4.976338-8.547677 9.621125-13.292748 13.951757 5.307889 0.125867 11.339256 0.212848 16.851806 0.212848 110.615307 0 181.979658-27.729551 181.979658-27.759227l0-0.013303c25.591865-6.563486 43.927465-29.639041 43.927465-57.181327C927.8348 735.606731 917.855518 718.461235 903.418714 707.680704L903.418714 707.680704zM903.418714 707.680704"  /></svg>